<svg width="134" height="71" viewBox="0 0 134 71" fill="none" xmlns="http://www.w3.org/2000/svg">
<g clip-path="url(#clip0_2_4)">
<path d="M39.7441 36.2553C39.7441 36.2553 42.0843 34.2676 43.8395 34.9037C45.6552 35.5398 46.5631 37.7262 46.442 38.9983C46.0587 41.8208 43.6378 45.5378 43.6378 45.5378C43.6378 45.5378 52.8778 39.8332 53.2005 39.5748C53.5839 39.376 53.9874 39.3164 54.5724 39.5748C55.097 39.8332 55.682 40.1512 55.6215 41.1053C55.5005 42.1389 55.6215 47.8236 55.7425 48.7976C55.9443 49.6324 54.5724 50.0101 53.8663 49.056C52.7567 47.5851 53.2812 42.3376 53.2812 42.3376C53.2812 42.3376 49.1253 46.0546 46.3815 47.2075C43.6579 48.3603 41.4992 47.3267 41.237 46.1142C40.9747 44.9017 44.4246 39.6543 44.2228 37.9846C43.9606 36.315 43.7588 37.1498 41.4186 36.8914C40.3291 36.7721 39.7441 36.2553 39.7441 36.2553Z" fill="white"/>
<path d="M29.919 34.8441C30.04 34.1484 35.1241 33.8105 36.4758 37.5274C38.1704 42.1389 33.9338 44.0669 33.4294 44.8222C33.4294 44.8222 30.7058 47.8236 29.3945 50.7058C28.1638 53.5283 27.9015 54.4227 27.5182 54.2836C27.1349 54.2836 26.8121 50.8847 27.7805 48.0622C28.7489 45.2993 29.9997 41.9798 30.6453 39.7934C30.6453 39.7934 31.2304 37.11 30.9681 36.2752C30.7058 35.6193 29.919 34.8441 29.919 34.8441Z" fill="white"/>
<path d="M-0.00012135 43.6893C0.262149 42.9936 13.073 34.0888 29.1926 28.245C37.6458 25.2436 41.8017 25.0448 48.883 24.528C56.6301 24.2696 60.0598 25.8001 60.2615 26.1977C60.7861 27.2312 59.0309 27.2909 59.0309 27.2909L59.4142 26.5952C59.4142 26.5952 56.3678 26.5356 51.1023 27.2909C46.4823 27.9269 40.8939 29.0798 31.1495 32.9955C28.1032 34.2676 24.3305 36.7721 21.849 38.0641C14.2432 41.9798 11.7012 43.1923 7.48467 44.4644C2.60241 45.7962 -0.181693 44.3849 -0.00012135 43.6893Z" fill="white"/>
<path d="M59.1722 39.0182C59.1722 39.0182 60.4029 38.9586 60.9274 41.0059C61.1292 40.8866 61.3914 40.7475 61.7142 40.4891C62.9449 39.6542 69.9657 34.4068 72.3866 33.4527C74.7269 32.4986 76.4821 34.0887 76.8049 34.9236C77.0066 35.3807 76.4821 35.6988 76.4821 35.6988C76.4821 35.6988 76.6031 36.2156 76.0988 36.7324C75.8365 36.9908 75.8365 36.9908 75.776 37.3684C75.7154 37.8256 75.4532 38.4616 74.9286 38.2629C74.4646 38.0641 74.283 37.11 73.6375 37.3684C73.0524 37.6864 72.5884 35.6391 63.8931 41.9798C62.4002 43.0731 61.4923 42.9339 61.0283 42.5563C60.766 44.4048 59.7977 47.2869 59.8582 47.5453C59.8582 47.923 59.8582 49.3939 59.3942 49.3939C59.0108 49.3939 58.0223 49.0162 57.9012 46.8894C57.7802 44.8421 58.7486 41.5823 59.0108 40.6083C59.2328 39.7139 59.1722 39.0182 59.1722 39.0182Z" fill="white"/>
<path fill-rule="evenodd" clip-rule="evenodd" d="M83.0994 27.2312C84.5923 27.112 85.0563 29.4773 85.0563 29.9146C85.1168 30.8687 84.673 32.1607 84.7335 32.6775C84.7335 32.9359 83.8257 35.2416 83.3616 36.4541C83.3616 36.4541 83.4222 36.5137 83.4827 36.5137L91.4718 33.0551C92.1174 32.9955 92.8437 33.6316 92.9042 34.3273C92.9648 35.2814 91.2096 35.2217 90.685 35.4205C87.8808 36.7721 84.5721 38.1039 82.0301 39.7139C81.7678 39.8331 81.7073 40.2903 81.5056 40.6083C81.5056 40.6083 81.445 40.6083 81.6266 40.6083C81.8284 40.6083 89.293 42.3973 89.4947 42.3973C89.878 42.3973 91.956 42.8544 92.0367 43.8085C92.0973 44.703 90.8666 45.339 90.5438 45.4185C89.5754 45.4782 89.8377 44.206 89.2526 44.2657C88.3448 44.3253 82.2924 42.1587 80.5977 43.1128C79.0443 44.0073 79.4276 46.0546 78.7215 47.5255C79.1855 47.9826 79.3065 47.8435 79.3065 48.1615C79.3671 48.6187 78.9837 48.8572 78.782 48.9367C77.4908 48.9964 76.9057 46.4322 76.825 46.1142C76.825 45.9155 76.8856 44.7626 76.9461 44.1265C76.825 44.0669 76.6233 44.1265 76.4821 44.1265C76.2198 44.1265 74.7874 44.5837 74.6058 44.5837C73.7585 44.6433 72.8506 43.0532 72.7901 42.3973C72.7296 41.1251 75.9777 39.7735 76.361 39.7139C80.7188 38.561 80.5775 33.1744 82.5345 29.7755C82.7967 29.199 82.7362 28.6226 82.7362 28.0462C82.7362 27.6685 82.4134 27.7878 82.1512 27.5294C82.5143 27.3505 82.8976 27.2312 83.0994 27.2312Z" fill="white"/>
<path d="M100.389 29.3978C100.51 29.3978 100.712 29.4574 100.853 29.4574C101.438 29.4574 102.992 30.9283 103.072 31.306C103.133 31.7632 102.164 32.7769 101.781 32.7769C101.66 32.7769 101.519 32.7172 101.458 32.7172C100.813 32.7769 100.349 32.7769 100.228 32.7769C100.107 32.7769 99.3803 32.4588 98.9365 32.2004C98.8961 32.1607 99.7434 29.3978 100.389 29.3978Z" fill="white"/>
<path d="M98.6944 34.9037C99.6022 34.8441 100.389 36.0566 100.45 36.6926C100.45 36.8914 98.1698 43.2321 98.1093 43.411C97.6453 44.6831 98.7549 45.8359 98.8154 46.2931C98.8759 46.7503 98.2909 48.3404 97.383 48.3404C97.1813 48.3404 97.1207 48.1417 96.9997 48.1417C96.8786 48.1417 96.2129 47.6845 95.9506 47.6845C95.8296 47.6845 95.6883 47.7441 95.5673 47.7441C94.72 47.7441 93.227 46.472 93.1665 45.8956C92.9849 44.8421 97.7865 36.1361 98.6944 34.9037Z" fill="white"/>
<path fill-rule="evenodd" clip-rule="evenodd" d="M130.752 32.2203C129.783 32.0216 129.259 31.8427 128.291 32.3396C127.766 32.6576 126.919 33.0353 125.95 33.6117C125.103 34.1285 124.135 34.8242 123.086 35.7186C120.947 37.6467 116.71 41.9401 117.82 43.9079C118.869 45.9552 120.866 46.472 121.27 46.5316C121.593 46.5913 123.489 46.7304 125.95 45.3191C126.414 45.0608 126.858 44.7427 127.322 44.4247C130.449 42.0594 132.467 39.9325 132.467 39.4356C132.406 38.8592 132.588 38.2231 131.68 38.7996C131.034 39.1772 128.109 40.986 125.95 42.1985C125.305 42.5761 124.72 42.8942 124.256 43.1526C122.299 44.1067 121.33 44.4247 121.209 44.2458C121.088 44.047 121.411 42.3177 121.996 41.8805C122.581 41.5028 122.581 41.9401 123.751 41.2444C124.276 40.9264 125.042 40.4096 125.97 39.7735C127.201 38.9983 128.573 38.1039 129.602 37.5871C131.418 36.7522 133.899 35.0826 134.02 34.1881V34.1285V34.0689C133.738 33.3135 131.74 32.4787 130.752 32.2203ZM129.4 34.4068C129.077 34.9832 127.262 36.3348 125.95 37.4082C125.89 37.4678 125.829 37.5274 125.749 37.6069C124.377 38.7002 122.44 40.1711 122.44 40.1711C122.44 40.1711 123.671 37.5473 125.95 35.5596C126.011 35.5 126.071 35.4404 126.071 35.3609C128.412 33.3135 129.783 33.89 129.4 34.4068Z" fill="white"/>
<path fill-rule="evenodd" clip-rule="evenodd" d="M40.5107 0.119263C40.5107 0.119263 45.7763 0.437292 49.4884 2.04731C52.6155 3.45857 54.6329 5.38662 58.2644 6.778C63.2072 8.70605 67.6254 9.91853 69.2596 10.4353C72.2454 11.4689 74.9892 14.2119 76.6031 19.0817C75.8163 18.2469 74.2629 16.7164 72.1849 15.3648C70.0464 13.8343 68.0894 13.0591 66.7176 12.4826C63.6712 11.3298 62.1581 10.5546 62.1581 10.5546C62.1581 10.5546 64.115 11.8267 66.8386 13.3175C69.5622 14.848 73.012 17.1537 75.0295 19.4594C76.6637 21.2483 77.4303 22.918 77.7531 24.0708C77.8741 24.5876 77.8741 25.1044 78.0154 25.6808C78.7215 32.8564 79.5083 33.9496 79.5083 33.9496C76.0584 29.7954 72.6086 31.2662 71.963 31.9023C71.963 31.9023 71.9024 29.7954 71.9024 25.3628C71.9024 21.0098 68.3315 17.5512 67.0202 16.5971C66.3746 16.2195 61.5529 13.8343 55.904 10.0577C52.9786 8.06999 50.8401 5.64502 48.3586 3.83623C44.9289 1.27212 40.5107 0.119263 40.5107 0.119263Z" fill="white"/>
<path d="M102.285 0C102.285 0 98.9768 6.28108 94.8007 8.64642C93.9533 9.16321 93.2472 9.54087 92.6621 9.8589C93.3077 9.66013 94.0945 9.40174 95.0024 9.08371C99.5619 7.47368 107.289 8.44765 107.289 8.44765C107.289 8.44765 100.47 8.82531 96.6971 14.4107C91.3104 22.5999 79.2662 24.6671 77.975 17.9885C77.854 17.4717 78.0961 16.9549 78.2373 16.5773C81.9494 18.9426 85.8431 15.2256 88.5667 11.7671C84.0879 11.5683 78.7416 12.1447 78.1566 16.4978C77.7733 16.299 77.2487 16.1797 76.9259 15.7226C72.5077 10.4751 81.8687 2.78275 91.7543 3.93561C98.5128 4.73068 102.285 0 102.285 0Z" fill="white"/>
<path d="M70.4297 32.2203C70.4297 32.2203 67.8272 31.9619 67.8272 25.82C67.8272 21.5862 69.199 21.7254 69.199 21.7254C69.199 21.7254 70.4297 23.4546 70.4297 26.0784C70.4297 28.6425 70.4297 32.2203 70.4297 32.2203Z" fill="white"/>
<path d="M106.3 33.89C106.3 33.89 106.502 35.1025 106.24 36.4541C105.917 37.8057 103.314 41.3239 105.07 42.4768C106.562 43.4309 114.431 36.8318 115.802 36.9709C116.186 37.0305 117.094 38.6405 116.186 42.4171C115.338 46.1937 108.519 64.381 108.257 66.7662C108.055 69.1316 108.257 70.9205 107.349 71C104.484 71.3777 102.346 67.3427 102.931 64.0232C103.516 60.6243 112.03 47.8236 113.402 44.9415C115.621 40.3301 115.036 39.2965 115.036 39.2965C115.036 39.2965 109.508 44.2856 106.381 44.544C103.254 44.7427 100.732 41.4034 102.669 37.8256C103.375 36.315 106.3 33.89 106.3 33.89Z" fill="white"/>
<path d="M52.6155 30.8091L52.9988 31.5048C52.5348 32.598 52.0909 32.8564 51.7681 32.9756L48.7823 34.7049C48.52 34.9037 47.935 35.4006 47.8744 35.341C47.4911 35.0826 47.5516 34.5062 47.4911 34.3074C47.8744 33.2142 49.0446 32.2601 49.0446 32.1209C49.5691 31.8029 50.2147 31.4849 50.6787 31.3457L52.6155 30.8091Z" fill="white"/>
<path d="M58.0626 32.4787L58.4459 33.1744C57.9819 34.2676 57.5381 34.526 57.2153 34.5857L54.2294 36.3746C53.9672 36.5734 53.4426 37.0703 53.3821 37.0106C52.9181 36.7522 52.9988 36.1758 52.9181 35.9174C53.3014 34.8838 54.4715 33.8701 54.5522 33.8105C55.0163 33.4924 55.6618 33.1744 56.1057 33.0353L58.0626 32.4787Z" fill="white"/>
</g>
<defs>
<clipPath id="clip0_2_4">
<rect width="134" height="71" fill="white"/>
</clipPath>
</defs>
</svg>
